<svg width="18" height="19" viewBox="0 0 18 19" fill="none" xmlns="http://www.w3.org/2000/svg">
<path d="M4.9153 2.41964V2.91964H5.4153H12.7149H13.2149V2.41964V1.09473H14.0398V2.41964V2.91964H14.5398H15.4523C15.8037 2.91964 16.1407 3.05922 16.3892 3.30769L16.7427 2.95414L16.3892 3.30769C16.6376 3.55616 16.7772 3.89316 16.7772 4.24455V17.0189C16.7772 17.3703 16.6376 17.7073 16.3892 17.9558C16.1407 18.2042 15.8037 18.3438 15.4523 18.3438H2.67794C2.32655 18.3438 1.98955 18.2042 1.74108 17.9558C1.49262 17.7073 1.35303 17.3703 1.35303 17.0189V4.24455C1.35303 3.89316 1.49262 3.55616 1.74108 3.30769C1.98955 3.05922 2.32655 2.91964 2.67794 2.91964H3.59039H4.09039V2.41964V1.09473H4.9153V2.41964ZM2.67794 5.56946H2.17794V6.06946V17.0189V17.5189H2.67794H15.4523H15.9523V17.0189V6.06946V5.56946H15.4523H2.67794ZM5.82776 9.30682V10.1317H5.00285V9.30682H5.82776ZM8.65267 9.30682H9.47757V10.1317H8.65267V9.30682ZM13.1274 9.30682V10.1317H12.3025V9.30682H13.1274ZM13.1274 12.9566V13.7815H12.3025V12.9566H13.1274ZM8.65267 12.9566H9.47757V13.7815H8.65267V12.9566ZM5.82776 12.9566V13.7815H5.00285V12.9566H5.82776Z" stroke="white"/>
</svg>