<svg width="25" height="25" viewBox="0 0 25 25" fill="none" xmlns="http://www.w3.org/2000/svg">
<path d="M6.15726 6.10859C6.15726 5.6312 6.34691 5.17337 6.68447 4.8358C7.02204 4.49824 7.47987 4.30859 7.95726 4.30859H16.3573C16.8347 4.30859 17.2925 4.49824 17.6301 4.8358C17.9676 5.17337 18.1573 5.6312 18.1573 6.10859V9.10859H16.9573V6.10859C16.9573 5.94946 16.894 5.79685 16.7815 5.68433C16.669 5.57181 16.5164 5.50859 16.3573 5.50859H7.95726C7.79813 5.50859 7.64552 5.57181 7.533 5.68433C7.42048 5.79685 7.35726 5.94946 7.35726 6.10859V10.3086H13.9573C13.6903 10.6635 13.5059 11.0734 13.4173 11.5086H6.15726C5.839 11.5086 5.53378 11.635 5.30874 11.8601C5.08369 12.0851 4.95726 12.3903 4.95726 12.7086V19.3086C4.95726 19.4677 5.02048 19.6203 5.133 19.7329C5.24552 19.8454 5.39813 19.9086 5.55726 19.9086H13.4173C13.5073 20.3526 13.6945 20.7606 13.9573 21.1086H5.55726C5.07987 21.1086 4.62204 20.9189 4.28447 20.5814C3.94691 20.2438 3.75726 19.786 3.75726 19.3086V12.7086C3.75726 12.0721 4.01012 11.4616 4.46021 11.0115C4.91029 10.5615 5.52074 10.3086 6.15726 10.3086V6.10859ZM14.5573 12.1086C14.5573 11.6312 14.7469 11.1734 15.0845 10.8358C15.422 10.4982 15.8799 10.3086 16.3573 10.3086H18.7573C19.2347 10.3086 19.6925 10.4982 20.0301 10.8358C20.3676 11.1734 20.5573 11.6312 20.5573 12.1086V19.3086C20.5573 19.786 20.3676 20.2438 20.0301 20.5814C19.6925 20.9189 19.2347 21.1086 18.7573 21.1086H16.3573C15.8799 21.1086 15.422 20.9189 15.0845 20.5814C14.7469 20.2438 14.5573 19.786 14.5573 19.3086V12.1086ZM16.3573 11.5086C16.1981 11.5086 16.0455 11.5718 15.933 11.6843C15.8205 11.7969 15.7573 11.9495 15.7573 12.1086V19.3086C15.7573 19.4677 15.8205 19.6203 15.933 19.7329C16.0455 19.8454 16.1981 19.9086 16.3573 19.9086H18.7573C18.9164 19.9086 19.069 19.8454 19.1815 19.7329C19.294 19.6203 19.3573 19.4677 19.3573 19.3086V12.1086C19.3573 11.9495 19.294 11.7969 19.1815 11.6843C19.069 11.5718 18.9164 11.5086 18.7573 11.5086H16.3573ZM6.90726 12.7086C7.10618 12.7086 7.29694 12.7876 7.43759 12.9283C7.57825 13.0689 7.65726 13.2597 7.65726 13.4586C7.65726 13.6575 7.57825 13.8483 7.43759 13.9889C7.29694 14.1296 7.10618 14.2086 6.90726 14.2086C6.70835 14.2086 6.51759 14.1296 6.37693 13.9889C6.23628 13.8483 6.15726 13.6575 6.15726 13.4586C6.15726 13.2597 6.23628 13.0689 6.37693 12.9283C6.51759 12.7876 6.70835 12.7086 6.90726 12.7086ZM6.90726 15.4086C7.10618 15.4086 7.29694 15.4876 7.43759 15.6283C7.57825 15.7689 7.65726 15.9597 7.65726 16.1586C7.65726 16.3575 7.57825 16.5483 7.43759 16.6889C7.29694 16.8296 7.10618 16.9086 6.90726 16.9086C6.70835 16.9086 6.51759 16.8296 6.37693 16.6889C6.23628 16.5483 6.15726 16.3575 6.15726 16.1586C6.15726 15.9597 6.23628 15.7689 6.37693 15.6283C6.51759 15.4876 6.70835 15.4086 6.90726 15.4086ZM10.3573 16.3086C10.3573 16.1097 10.2782 15.9189 10.1376 15.7783C9.99694 15.6376 9.80618 15.5586 9.60726 15.5586C9.40835 15.5586 9.21759 15.6376 9.07693 15.7783C8.93628 15.9189 8.85726 16.1097 8.85726 16.3086C8.85726 16.5075 8.93628 16.6983 9.07693 16.8389C9.21759 16.9796 9.40835 17.0586 9.60726 17.0586C9.80618 17.0586 9.99694 16.9796 10.1376 16.8389C10.2782 16.6983 10.3573 16.5075 10.3573 16.3086ZM9.60726 12.7086C9.80618 12.7086 9.99694 12.7876 10.1376 12.9283C10.2782 13.0689 10.3573 13.2597 10.3573 13.4586C10.3573 13.6575 10.2782 13.8483 10.1376 13.9889C9.99694 14.1296 9.80618 14.2086 9.60726 14.2086C9.40835 14.2086 9.21759 14.1296 9.07693 13.9889C8.93628 13.8483 8.85726 13.6575 8.85726 13.4586C8.85726 13.2597 8.93628 13.0689 9.07693 12.9283C9.21759 12.7876 9.40835 12.7086 9.60726 12.7086Z" fill="white" stroke="white" stroke-width="0.4"/>
</svg>