<svg width="16" height="14" viewBox="0 0 16 14" fill="none" xmlns="http://www.w3.org/2000/svg">
<path d="M0.975464 4.00979C0.975373 3.48037 1.08081 2.95625 1.28561 2.46805C1.4904 1.97985 1.79046 1.53737 2.16823 1.16647C2.546 0.795567 2.99391 0.503683 3.48578 0.307877C3.97766 0.112071 4.50363 0.0162698 5.03295 0.0260738C5.65925 0.0227478 6.27911 0.152571 6.85143 0.406939C7.42376 0.661308 7.93549 1.03441 8.35271 1.50152C8.76993 1.03441 9.28166 0.661308 9.85399 0.406939C10.4263 0.152571 11.0462 0.0227478 11.6725 0.0260738C12.2018 0.0162698 12.7278 0.112071 13.2196 0.307877C13.7115 0.503683 14.1594 0.795567 14.5372 1.16647C14.915 1.53737 15.215 1.97985 15.4198 2.46805C15.6246 2.95625 15.73 3.48037 15.73 4.00979C15.73 7.96104 11.024 10.9444 8.35271 13.3051C5.68731 10.9245 0.975464 7.96399 0.975464 4.00979Z" fill="#FA1C1C"/>
</svg>
