<svg width="25" height="25" viewBox="0 0 25 25" fill="none" xmlns="http://www.w3.org/2000/svg">
<path fill-rule="evenodd" clip-rule="evenodd" d="M7.53393 0.13157C8.81357 0.0726612 9.22157 0.0595703 12.4812 0.0595703C15.7408 0.0595703 16.1488 0.0737521 17.4274 0.13157C18.7059 0.189388 19.5787 0.393389 20.3423 0.689025C21.1419 0.991207 21.8674 1.46357 22.4674 2.07448C23.0783 2.67339 23.5496 3.39775 23.8507 4.19848C24.1474 4.96212 24.3503 5.83484 24.4092 7.11121C24.4681 8.39303 24.4812 8.80103 24.4812 12.0596C24.4812 15.3192 24.467 15.7272 24.4092 17.0068C24.3514 18.2832 24.1474 19.1559 23.8507 19.9196C23.5496 20.7204 23.0775 21.446 22.4674 22.0458C21.8674 22.6567 21.1419 23.1279 20.3423 23.429C19.5787 23.7258 18.7059 23.9287 17.4296 23.9876C16.1488 24.0465 15.7408 24.0596 12.4812 24.0596C9.22157 24.0596 8.81357 24.0454 7.53393 23.9876C6.25757 23.9298 5.38484 23.7258 4.6212 23.429C3.82039 23.1279 3.09482 22.6558 2.49502 22.0458C1.88452 21.4465 1.41209 20.7213 1.11066 19.9207C0.815019 19.157 0.61211 18.2843 0.553201 17.0079C0.494292 15.7261 0.481201 15.3181 0.481201 12.0596C0.481201 8.79993 0.495383 8.39193 0.553201 7.11339C0.611019 5.83484 0.815019 4.96212 1.11066 4.19848C1.41254 3.39784 1.88533 2.67264 2.49611 2.07339C3.09506 1.46303 3.8199 0.9906 4.62011 0.689025C5.38375 0.393389 6.25647 0.190479 7.53284 0.13157H7.53393ZM17.3303 2.29157C16.0648 2.23375 15.6852 2.22175 12.4812 2.22175C9.2772 2.22175 8.89756 2.23375 7.63211 2.29157C6.46157 2.34502 5.82666 2.5403 5.40338 2.70502C4.84375 2.92321 4.44338 3.18175 4.02338 3.60175C3.62525 3.98908 3.31885 4.46061 3.12666 4.98175C2.96193 5.40503 2.76666 6.03993 2.7132 7.21048C2.65538 8.47593 2.64338 8.85557 2.64338 12.0596C2.64338 15.2636 2.65538 15.6432 2.7132 16.9087C2.76666 18.0792 2.96193 18.7141 3.12666 19.1374C3.31866 19.6578 3.6252 20.1301 4.02338 20.5174C4.41066 20.9156 4.88302 21.2221 5.40338 21.4141C5.82666 21.5788 6.46157 21.7741 7.63211 21.8276C8.89756 21.8854 9.27611 21.8974 12.4812 21.8974C15.6863 21.8974 16.0648 21.8854 17.3303 21.8276C18.5008 21.7741 19.1357 21.5788 19.559 21.4141C20.1187 21.1959 20.519 20.9374 20.939 20.5174C21.3372 20.1301 21.6437 19.6578 21.8357 19.1374C22.0005 18.7141 22.1957 18.0792 22.2492 16.9087C22.307 15.6432 22.319 15.2636 22.319 12.0596C22.319 8.85557 22.307 8.47593 22.2492 7.21048C22.1957 6.03993 22.0005 5.40503 21.8357 4.98175C21.6176 4.42212 21.359 4.02175 20.939 3.60175C20.5517 3.20365 20.0802 2.89725 19.559 2.70502C19.1357 2.5403 18.5008 2.34502 17.3303 2.29157ZM10.9485 15.7588C11.8045 16.1152 12.7576 16.1633 13.6451 15.8949C14.5326 15.6265 15.2994 15.0584 15.8146 14.2875C16.3297 13.5166 16.5613 12.5907 16.4696 11.668C16.378 10.7454 15.9688 9.88318 15.3121 9.22866C14.8935 8.81027 14.3873 8.48991 13.8299 8.29064C13.2726 8.09137 12.678 8.01815 12.089 8.07624C11.5 8.13434 10.9312 8.32231 10.4235 8.62662C9.91588 8.93093 9.48201 9.34402 9.15317 9.83614C8.82432 10.3283 8.60868 10.8872 8.52176 11.4726C8.43485 12.0581 8.47882 12.6555 8.65052 13.222C8.82221 13.7884 9.11736 14.3097 9.51472 14.7484C9.91207 15.187 10.4017 15.5321 10.9485 15.7588ZM8.11975 7.69812C8.6925 7.12536 9.37246 6.67103 10.1208 6.36106C10.8691 6.05108 11.6712 5.89154 12.4812 5.89154C13.2912 5.89154 14.0933 6.05108 14.8416 6.36106C15.5899 6.67103 16.2699 7.12536 16.8427 7.69812C17.4154 8.27087 17.8697 8.95083 18.1797 9.69917C18.4897 10.4475 18.6492 11.2496 18.6492 12.0596C18.6492 12.8696 18.4897 13.6716 18.1797 14.42C17.8697 15.1683 17.4154 15.8483 16.8427 16.421C15.6859 17.5778 14.1171 18.2276 12.4812 18.2276C10.8453 18.2276 9.27648 17.5778 8.11975 16.421C6.96302 15.2643 6.31317 13.6954 6.31317 12.0596C6.31317 10.4237 6.96302 8.85485 8.11975 7.69812ZM20.0172 6.81012C20.1591 6.67623 20.2728 6.51522 20.3514 6.33663C20.4299 6.15804 20.4719 5.9655 20.4747 5.7704C20.4776 5.57531 20.4413 5.38162 20.3679 5.20082C20.2946 5.02001 20.1857 4.85576 20.0477 4.71779C19.9097 4.57983 19.7455 4.47094 19.5647 4.39759C19.3839 4.32424 19.1902 4.28791 18.9951 4.29075C18.8 4.2936 18.6075 4.33556 18.4289 4.41415C18.2503 4.49274 18.0893 4.60637 17.9554 4.7483C17.695 5.02433 17.5524 5.39098 17.558 5.7704C17.5635 6.14983 17.7167 6.51217 17.985 6.78049C18.2533 7.04881 18.6157 7.202 18.9951 7.20753C19.3745 7.21306 19.7412 7.0705 20.0172 6.81012Z" fill="white"/>
</svg>