<svg width="25" height="25" viewBox="0 0 25 25" fill="none" xmlns="http://www.w3.org/2000/svg">
<path d="M3.3657 5.8481C4.95876 5.8481 6.2502 4.55666 6.2502 2.9636C6.2502 1.37053 4.95876 0.0791016 3.3657 0.0791016C1.77263 0.0791016 0.481201 1.37053 0.481201 2.9636C0.481201 4.55666 1.77263 5.8481 3.3657 5.8481Z" fill="white"/>
<path d="M8.97375 8.03417V24.0373H13.9425V16.1234C13.9425 14.0352 14.3354 12.0129 16.9246 12.0129C19.4782 12.0129 19.5098 14.4004 19.5098 16.2553V24.0387H24.4812V15.2626C24.4812 10.9516 23.5531 7.63867 18.5145 7.63867C16.0953 7.63867 14.4738 8.96623 13.8107 10.2226H13.7435V8.03417H8.97375ZM0.876587 8.03417H5.85327V24.0373H0.876587V8.03417Z" fill="white"/>
</svg>