<svg width="20" height="25" viewBox="0 0 20 25" fill="none" xmlns="http://www.w3.org/2000/svg">
<path d="M10.2096 0.249023C7.70633 0.251963 5.30643 1.24295 3.53635 3.00461C1.76627 4.76626 0.770541 7.15473 0.767588 9.64609C0.76459 11.682 1.4328 13.6627 2.66972 15.2843C2.66972 15.2843 2.92723 15.6218 2.96929 15.6705L10.2096 24.1688L17.4533 15.6662C17.4911 15.6209 17.7495 15.2843 17.7495 15.2843L17.7503 15.2818C18.9866 13.6609 19.6546 11.6811 19.6516 9.64609C19.6487 7.15473 18.6529 4.76626 16.8829 3.00461C15.1128 1.24295 12.7129 0.251963 10.2096 0.249023ZM10.2096 13.0632C9.53053 13.0632 8.8667 12.8628 8.30207 12.4873C7.73744 12.1118 7.29737 11.5782 7.0375 10.9538C6.77763 10.3294 6.70963 9.64229 6.84212 8.97944C6.9746 8.31658 7.3016 7.70771 7.78178 7.22982C8.26196 6.75193 8.87374 6.42648 9.53977 6.29463C10.2058 6.16278 10.8961 6.23045 11.5235 6.48908C12.1509 6.74772 12.6871 7.1857 13.0644 7.74764C13.4417 8.30958 13.6431 8.97024 13.6431 9.64609C13.6419 10.552 13.2798 11.4205 12.6362 12.0611C11.9925 12.7017 11.1199 13.0621 10.2096 13.0632Z" fill="white"/>
</svg>