<svg width="23" height="25" viewBox="0 0 23 25" fill="none" xmlns="http://www.w3.org/2000/svg">
<path d="M6.2684 12.709H8.71284C9.037 12.709 9.34787 12.5826 9.57708 12.3575C9.8063 12.1325 9.93507 11.8272 9.93507 11.509C9.93507 11.1907 9.8063 10.8855 9.57708 10.6605C9.34787 10.4354 9.037 10.309 8.71284 10.309H6.2684C5.94425 10.309 5.63337 10.4354 5.40416 10.6605C5.17495 10.8855 5.04618 11.1907 5.04618 11.509C5.04618 11.8272 5.17495 12.1325 5.40416 12.3575C5.63337 12.5826 5.94425 12.709 6.2684 12.709ZM17.2684 5.50898H11.1573V3.10898H12.3795C12.7037 3.10898 13.0145 2.98256 13.2438 2.75751C13.473 2.53247 13.6017 2.22724 13.6017 1.90898C13.6017 1.59072 13.473 1.2855 13.2438 1.06046C13.0145 0.835413 12.7037 0.708984 12.3795 0.708984H9.93507C9.61091 0.708984 9.30004 0.835413 9.07082 1.06046C8.84161 1.2855 8.71284 1.59072 8.71284 1.90898V5.50898H5.04618C3.74956 5.50898 2.50605 6.0147 1.58921 6.91487C0.672365 7.81505 0.157288 9.03595 0.157288 10.309V17.509C0.157288 17.8272 0.286057 18.1325 0.515268 18.3575C0.744479 18.5826 1.05536 18.709 1.37951 18.709H8.71284V23.509C8.71284 23.8272 8.84161 24.1325 9.07082 24.3575C9.30004 24.5826 9.61091 24.709 9.93507 24.709C10.2592 24.709 10.5701 24.5826 10.7993 24.3575C11.0285 24.1325 11.1573 23.8272 11.1573 23.509V18.709H20.9351C21.2592 18.709 21.5701 18.5826 21.7993 18.3575C22.0285 18.1325 22.1573 17.8272 22.1573 17.509V10.309C22.1573 9.03595 21.6422 7.81505 20.7254 6.91487C19.8085 6.0147 18.565 5.50898 17.2684 5.50898ZM12.3795 10.309V16.309H2.60173V10.309C2.60173 9.67247 2.85927 9.06202 3.31769 8.61193C3.77612 8.16184 4.39787 7.90898 5.04618 7.90898H13.064C12.6196 8.63378 12.3831 9.46303 12.3795 10.309ZM19.7128 16.309H14.824V10.309C14.824 9.67247 15.0815 9.06202 15.5399 8.61193C15.9983 8.16184 16.6201 7.90898 17.2684 7.90898C17.9167 7.90898 18.5385 8.16184 18.9969 8.61193C19.4553 9.06202 19.7128 9.67247 19.7128 10.309V16.309Z" fill="white"/>
</svg>