<svg width="21" height="18" viewBox="0 0 21 18" fill="none" xmlns="http://www.w3.org/2000/svg">
<path d="M16.9265 0.708984C17.7425 0.708984 18.5252 1.03316 19.1022 1.61019C19.6792 2.18723 20.0034 2.96986 20.0034 3.78591V13.6321C20.0034 14.4481 19.6792 15.2307 19.1022 15.8078C18.5252 16.3848 17.7425 16.709 16.9265 16.709H3.38802C2.57197 16.709 1.78934 16.3848 1.21231 15.8078C0.635271 15.2307 0.311096 14.4481 0.311096 13.6321V3.78591C0.311096 2.96986 0.635271 2.18723 1.21231 1.61019C1.78934 1.03316 2.57197 0.708984 3.38802 0.708984H16.9265ZM18.7726 5.58406L10.4699 10.4702C10.3914 10.5163 10.3036 10.5444 10.213 10.5525C10.1223 10.5606 10.031 10.5485 9.94556 10.517L9.84464 10.4702L1.54187 5.58652V13.6321C1.54187 14.1217 1.73637 14.5913 2.08259 14.9375C2.42881 15.2837 2.89839 15.4782 3.38802 15.4782H16.9265C17.4161 15.4782 17.8857 15.2837 18.2319 14.9375C18.5781 14.5913 18.7726 14.1217 18.7726 13.6321V5.58406ZM16.9265 1.93975H3.38802C2.89839 1.93975 2.42881 2.13426 2.08259 2.48048C1.73637 2.8267 1.54187 3.29628 1.54187 3.78591V4.1576L10.1573 9.22591L18.7726 4.15514V3.78591C18.7726 3.29628 18.5781 2.8267 18.2319 2.48048C17.8857 2.13426 17.4161 1.93975 16.9265 1.93975Z" fill="white" stroke="white" stroke-width="0.6"/>
</svg>