<svg width="39" height="39" viewBox="0 0 39 39" fill="none" xmlns="http://www.w3.org/2000/svg">
<g clip-path="url(#clip0_141_198)">
<path d="M0.0223389 5.69458V11.1912L1.17755 11.7047C1.80423 11.984 3.68427 12.8523 5.34535 13.63C8.53161 15.125 9.3697 15.4799 10.3965 15.7743C11.9217 16.2198 13.1449 16.2198 15.2363 15.7819C18.2565 15.1401 18.853 15.0646 21.0501 14.9966C22.983 14.9438 23.1189 14.9287 23.655 14.7399C24.3874 14.4832 25.1575 13.9471 25.6407 13.3733C26.1013 12.8146 26.5241 11.9387 26.5241 11.531C26.5241 11.1686 26.2825 10.7911 25.9201 10.6023C25.6709 10.4664 25.384 10.4589 20.8085 10.4589H15.9536V9.32631V8.19375H21.186C26.8564 8.19375 26.9243 8.2013 27.7548 8.61657C28.306 8.90349 28.8799 9.29611 29.9445 10.1417C31.6357 11.4933 33.2062 12.7013 33.5233 12.8976C34.5577 13.547 36.0678 13.6225 37.0796 13.0637C37.5326 12.8146 37.7138 12.6485 38.2574 12.0142L38.7029 11.4857L37.3136 10.1191C34.7767 7.61992 32.504 6.01169 29.7406 4.77343C25.1726 2.71973 20.3479 2.39507 14.3605 3.73903C12.5106 4.16185 11.0987 4.1241 9.26399 3.61823C8.3353 3.36907 7.54251 3.06705 4.4393 1.77594C3.17839 1.24741 0.2413 0.190361 0.04499 0.190361C0.0298892 0.190361 0.0223389 2.66688 0.0223389 5.69458Z" fill="#07B3C5"/>
<path d="M20.8614 17.2993C18.7699 17.6164 17.0107 19.0585 16.301 21.0292C15.9914 21.8748 15.8555 21.8069 17.7884 21.7615C19.6156 21.7238 20.1818 21.6483 22.6735 21.1122C24.3421 20.7573 25.4369 20.6214 26.2297 20.6743L26.8186 20.712L26.7507 20.5308C26.4713 19.7985 25.4445 18.6508 24.5913 18.1147C23.5191 17.4427 22.0468 17.1256 20.8614 17.2993Z" fill="#38A949"/>
<path d="M24.6743 23.0226C24.3421 23.0754 23.5795 23.2264 22.9754 23.3548C20.5669 23.8833 19.7514 23.9815 17.6147 24.0419C15.7422 24.0947 15.5761 24.1098 15.0702 24.291C14.3907 24.5326 13.5677 25.0763 13.1222 25.5821C12.6692 26.0956 12.1784 27.0922 12.1784 27.4999C12.1784 27.8699 12.42 28.2474 12.7824 28.4362C13.0316 28.5721 13.3185 28.5796 17.894 28.5796H22.7489V29.7122V30.8523L17.2976 30.8297C11.8386 30.807 11.8386 30.807 11.3856 30.6333C10.5249 30.3087 10.0341 29.9614 7.10457 27.6207C6.12302 26.8355 5.12637 26.1031 4.89231 25.9823C4.31093 25.703 3.48794 25.5368 2.95186 25.5972C1.89481 25.7105 1.19263 26.1107 0.467793 26.9941L0.0147705 27.5452L1.05672 28.5947C5.45859 33.0344 9.95105 35.3599 15.3118 35.9941C16.3613 36.1149 19.1927 36.1149 20.3328 35.9866C21.4578 35.8657 23.0585 35.5864 24.3345 35.2995C26.1466 34.8842 27.5283 34.9069 29.3026 35.3825C30.3295 35.6543 31.16 35.9564 33.3572 36.885C35.3807 37.7382 36.2943 38.0856 37.6232 38.5159C38.1819 38.6971 38.65 38.8481 38.6651 38.8481C38.6727 38.8481 38.6802 36.3716 38.6802 33.3439V27.8397L37.5326 27.3338C36.8983 27.0545 35.1919 26.2617 33.7347 25.5746C30.5485 24.0796 29.6273 23.6795 28.6835 23.3774C27.2867 22.932 26.0107 22.8187 24.6743 23.0226Z" fill="#C8EEF9"/>
</g>
<defs>
<clipPath id="clip0_141_198">
<rect width="38.6579" height="38.6579" fill="white" transform="translate(0.0223389 0.19043)"/>
</clipPath>
</defs>
</svg>