<svg width="42" height="43" viewBox="0 0 42 43" fill="none" xmlns="http://www.w3.org/2000/svg">
<g clip-path="url(#clip0_148_116)">
<path d="M9.10166 3.35258C5.79635 3.73615 2.78485 5.80911 1.22605 8.77981C0.37728 10.3876 0.0589905 11.7015 0.0589905 13.5868C0.0671517 15.4557 0.393602 16.8105 1.22605 18.4019C1.82998 19.5445 2.36047 20.1811 4.3763 22.1969L6.22074 24.0332L11.3623 18.8916L16.5039 13.75L18.6503 15.8883C21.213 18.4427 21.2783 18.4835 22.5841 18.4835C23.3186 18.4835 23.4492 18.4591 23.8491 18.255C24.4693 17.9367 25.0161 17.3736 25.2936 16.7778C25.4895 16.3453 25.5221 16.1821 25.5221 15.5455C25.5221 14.8844 25.4976 14.7539 25.2528 14.2397C24.9998 13.7011 24.7305 13.4154 20.9273 9.62042C17.3609 6.06211 16.7732 5.50715 16.0469 5.02563C13.9658 3.65454 11.5337 3.06693 9.10166 3.35258Z" fill="#07B3C5"/>
<path d="M30.3862 4.25031C28.7948 4.42169 27.2278 4.99298 25.7996 5.9152C25.367 6.19268 23.9388 7.37606 23.1145 8.13506C23.0166 8.22483 23.2614 8.51048 24.9263 10.1835C26.0689 11.3261 26.983 12.3218 27.1707 12.6156C27.8807 13.7255 28.1745 15.3415 27.897 16.6473C27.693 17.6266 27.1299 18.6631 26.4362 19.365C25.3589 20.4422 24.3142 20.8911 22.7881 20.9564C21.6537 20.9972 21.1069 20.8829 20.0949 20.3851C19.4664 20.0831 19.2624 19.9118 17.9729 18.6386L16.5366 17.2267L11.8765 21.8949C7.43675 26.3428 7.20823 26.5877 7.03685 27.0529C6.80017 27.6813 6.78385 28.5219 6.98788 29.1177C7.18375 29.6889 7.87746 30.4398 8.48955 30.7417C8.90578 30.9458 9.03636 30.9703 9.81168 30.9703C10.587 30.9703 10.7094 30.9458 11.093 30.7499L11.5092 30.5296L11.2317 30.9947C11.0767 31.2477 10.9134 31.6068 10.8645 31.7864C10.7257 32.2761 10.8155 33.3452 11.0195 33.8104C11.2725 34.3817 11.9254 35.0264 12.5294 35.3039C12.9701 35.5079 13.1333 35.5406 13.7699 35.5406C14.3983 35.5406 14.5697 35.5079 14.9778 35.3202C15.2308 35.1978 15.4429 35.1325 15.4429 35.1733C15.4429 35.2141 15.4021 35.2712 15.3613 35.2957C15.1981 35.3937 14.888 36.12 14.79 36.6097C14.382 38.6745 16.406 40.5597 18.4626 40.0374C19.1563 39.8579 19.4909 39.6294 20.6253 38.5684L21.572 37.6788L20.3152 36.4057C18.9849 35.0591 18.7646 34.7816 18.4626 33.9899C18.1851 33.2881 18.1851 31.9986 18.4626 31.2967C19.0421 29.795 20.2336 28.8402 21.7598 28.6525L22.176 28.6035L22.2739 28.0322C22.4045 27.3385 22.8207 26.4489 23.2451 25.9592C23.8572 25.2574 25.0896 24.6453 25.8975 24.6453C26.1913 24.6453 26.2158 24.629 26.2158 24.4168C26.2158 24.074 26.4362 23.2987 26.6728 22.8172C27.1299 21.8705 28.0439 21.1196 29.0967 20.7932C29.5619 20.6544 29.8068 20.6299 30.5005 20.6626C31.2595 20.6952 31.3982 20.7279 31.9777 21.0054C32.5571 21.2747 32.7611 21.4542 34.222 22.9069L35.8379 24.5065L37.1274 23.3232C39.3636 21.2665 39.9267 20.6055 40.6449 19.2017C41.1019 18.2958 41.3876 17.4879 41.6079 16.484C41.812 15.521 41.812 13.448 41.6079 12.485C40.5878 7.75148 36.7112 4.43801 31.9287 4.21766C31.4553 4.19318 30.7616 4.2095 30.3862 4.25031Z" fill="#C8EDF9"/>
<path d="M29.5211 23.2497C29.0233 23.5598 28.6642 24.1311 28.6642 24.6208C28.6642 25.29 28.7703 25.4287 30.7371 27.4037C31.7736 28.4565 32.7693 29.3951 32.9488 29.5012C33.7568 29.9745 34.7362 29.6889 35.1524 28.8565C35.3891 28.3913 35.4135 27.9506 35.2258 27.518C35.0708 27.1426 31.4553 23.4782 31.0146 23.2497C30.6066 23.0456 29.8557 23.0375 29.5211 23.2497Z" fill="#07B3C5"/>
<path d="M26.0934 27.0694C26.0036 27.0858 25.8486 27.1184 25.7506 27.1429C25.2773 27.2408 24.6734 28.057 24.6652 28.6038C24.6652 29.2811 24.7631 29.4199 26.6973 31.3704C27.7093 32.3987 28.705 33.3373 28.9009 33.4679C29.8802 34.0963 31.2268 33.4597 31.3411 32.3253C31.4146 31.5745 31.3329 31.452 29.2437 29.3546C28.1827 28.2855 27.187 27.3388 27.032 27.2653C26.7137 27.1021 26.3382 27.0205 26.0934 27.0694Z" fill="#07B3C5"/>
<path d="M22.0944 31.0523C22.0536 31.0686 21.9148 31.1013 21.7924 31.1257C21.2619 31.2482 20.6662 32.0398 20.6662 32.6437C20.6662 33.2395 20.9355 33.5986 22.7718 35.4512C23.743 36.4306 24.706 37.3365 24.9019 37.467C25.8812 38.0955 27.2278 37.467 27.3421 36.3245C27.4155 35.5736 27.3339 35.4512 25.2446 33.3538C24.1837 32.2846 23.188 31.3379 23.0329 31.2645C22.7473 31.1094 22.2413 31.0033 22.0944 31.0523Z" fill="#07B3C5"/>
</g>
<defs>
<clipPath id="clip0_148_116">
<rect width="41.7856" height="41.7856" fill="white" transform="translate(0.0181885 0.814453)"/>
</clipPath>
</defs>
</svg>