<svg width="47" height="48" viewBox="0 0 47 48" fill="none" xmlns="http://www.w3.org/2000/svg">
<g clip-path="url(#clip0_141_180)">
<path d="M22.4588 0.750751C21.6185 0.969955 21.1162 1.3079 19.3717 2.84233C18.4126 3.69174 17.5724 4.37676 17.4902 4.37676C17.408 4.37676 16.0927 4.27629 14.5583 4.15755C11.4072 3.91095 11.0602 3.92921 10.0372 4.41329C9.3248 4.7421 8.67632 5.31751 8.32011 5.93859C8.14657 6.23086 6.33814 11.5922 6.33814 11.8114C6.33814 11.8297 5.29692 12.4599 4.03649 13.1997C2.42899 14.1405 1.57958 14.6976 1.2599 15.0264C0.264351 16.0129 -0.183191 17.5016 0.145616 18.7894C0.200417 19.0269 0.693626 20.2965 1.2325 21.6117L2.20979 23.9955L1.2599 26.3155C0.73016 27.585 0.236951 28.8546 0.163883 29.1286C-0.0827223 30.0785 0.0634139 31.1562 0.556624 32.0696C0.995032 32.8642 1.76225 33.4579 4.31963 34.9649C5.63486 35.7412 6.73088 36.408 6.74915 36.4445C6.77655 36.4719 7.04142 37.5497 7.34282 38.8192C7.6625 40.1345 8.0187 41.3858 8.16484 41.7146C8.51191 42.4544 9.30653 43.2581 10.0372 43.5961C10.9871 44.0527 11.3981 44.071 14.4304 43.8518C15.9375 43.7331 17.2618 43.6509 17.3897 43.6509C17.5541 43.6509 18.029 44.0162 19.0246 44.893C19.8009 45.5689 20.6047 46.263 20.8056 46.4366C22.0843 47.4687 23.8014 47.6696 25.2536 46.9389C25.5916 46.7654 26.4319 46.1078 27.5096 45.1579C29.108 43.7513 29.245 43.6509 29.5829 43.6509C29.7839 43.6509 30.9804 43.7331 32.2316 43.8335C35.063 44.0619 35.5014 44.0619 36.1956 43.8427C37.2733 43.5047 38.1319 42.7923 38.6251 41.8333C38.8352 41.4132 39.2553 39.8605 39.8581 37.2848L40.0499 36.4537L42.5342 34.9649C45.1647 33.3939 45.8497 32.8642 46.279 32.0696C46.7722 31.1562 46.9183 30.0693 46.6717 29.1286C46.5987 28.8546 46.1055 27.585 45.5757 26.3155L44.6167 23.9955L45.6214 21.566C46.2607 20.0133 46.6626 18.9173 46.7265 18.5154C46.9457 17.2824 46.4982 15.9307 45.5848 15.0264C45.256 14.7068 44.3062 14.0765 42.5891 13.0536L40.0682 11.5557L39.4745 9.10792C39.1457 7.76529 38.7804 6.46833 38.6616 6.23086C38.2689 5.40884 37.2916 4.53203 36.4422 4.22149C35.611 3.92921 35.1818 3.92008 32.2956 4.14842C30.752 4.27629 29.4277 4.37676 29.3455 4.37676C29.2633 4.37676 28.5052 3.75568 27.6558 2.9976C25.8565 1.3901 25.5002 1.13436 24.8061 0.887756C24.1576 0.659416 23.0616 0.595482 22.4588 0.750751ZM25.9661 9.16272C29.0989 9.73813 31.8115 11.1447 34.0127 13.3276C36.2687 15.5744 37.6752 18.278 38.278 21.4838C38.4881 22.6529 38.4881 25.3747 38.278 26.5438C37.0815 32.9464 32.3504 37.6775 25.9478 38.874C24.7787 39.0841 22.0569 39.0841 20.8878 38.874C17.682 38.2712 14.9145 36.819 12.6859 34.5539C10.4756 32.3162 9.07819 29.5579 8.51191 26.2972C8.36578 25.4112 8.36578 22.6164 8.51191 21.7304C9.7084 14.8712 14.8871 9.90253 21.7464 9.03485C22.6232 8.92525 25.0527 8.99831 25.9661 9.16272Z" fill="#D8F6FF"/>
<path d="M22.1391 11.7383C20.1115 11.9941 18.166 12.7065 16.4763 13.8299C15.5995 14.4144 13.8185 16.1955 13.2339 17.0723C12.3023 18.4789 11.6538 20.0407 11.2976 21.7304C11.0784 22.8081 11.0784 25.2194 11.2976 26.2971C11.8365 28.8637 12.8777 30.8182 14.6953 32.6541C16.5129 34.499 18.5405 35.5951 21.1344 36.1339C22.203 36.3531 24.6052 36.3531 25.7195 36.1339C28.1855 35.6407 30.2314 34.5447 32.0581 32.7363C33.9031 30.9187 34.9991 28.8911 35.538 26.2971C35.7572 25.2194 35.7572 22.8081 35.538 21.7304C35.1818 20.0407 34.5333 18.4789 33.6017 17.0723C32.9989 16.1681 31.2361 14.4053 30.3136 13.8025C28.9344 12.8891 27.3452 12.2224 25.7834 11.9119C25.1075 11.7749 22.7511 11.6653 22.1391 11.7383ZM30.9073 18.7163C31.3183 18.9264 31.638 19.447 31.638 19.9037C31.638 20.059 31.5558 20.333 31.4644 20.5248C31.2452 20.9449 23.0251 29.1468 22.6232 29.3477C22.2305 29.5395 21.8377 29.5304 21.4267 29.3203C21.0066 29.1011 15.5447 23.621 15.3438 23.2192C14.7866 22.1049 16.0288 20.8627 17.1431 21.4198C17.3075 21.5021 18.4766 22.5981 19.7461 23.8585L22.0478 26.1601L25.7286 22.4885C27.7471 20.4791 29.5281 18.762 29.6743 18.6798C30.0487 18.488 30.478 18.4971 30.9073 18.7163Z" fill="#07B3C5"/>
</g>
<defs>
<clipPath id="clip0_141_180">
<rect width="46.7636" height="46.7636" fill="white" transform="translate(0.0360107 0.631836)"/>
</clipPath>
</defs>
</svg>