<svg width="25" height="25" viewBox="0 0 25 25" fill="none" xmlns="http://www.w3.org/2000/svg">
<path fill-rule="evenodd" clip-rule="evenodd" d="M4.18129 9.70898L4.15729 9.63998C3.61729 8.09298 3.15729 5.97898 3.15729 4.70898C3.15729 4.15898 3.60729 3.70898 4.15729 3.70898H7.15729C7.68772 3.70898 8.19643 3.9197 8.5715 4.29477C8.94657 4.66984 9.15729 5.17855 9.15729 5.70898V7.70898C9.15729 8.23942 8.94657 8.74812 8.5715 9.1232C8.19643 9.49827 7.68772 9.70898 7.15729 9.70898H6.32029C7.12766 11.698 8.32571 13.5048 9.84358 15.0227C11.3615 16.5406 13.1683 17.7386 15.1573 18.546V17.709C15.1573 17.1786 15.368 16.6698 15.7431 16.2948C16.1181 15.9197 16.6269 15.709 17.1573 15.709H19.1573C19.6877 15.709 20.1964 15.9197 20.5715 16.2948C20.9466 16.6698 21.1573 17.1786 21.1573 17.709V20.709C21.1573 21.159 20.6073 21.709 20.1573 21.709C18.4323 21.709 16.7173 21.253 15.1573 20.709C10.0433 18.877 5.98929 14.823 4.18129 9.70898Z" fill="white"/>
</svg>