<svg width="25" height="25" viewBox="0 0 25 25" fill="none" xmlns="http://www.w3.org/2000/svg">
<g clip-path="url(#clip0_169_413)">
<path d="M13.0437 0.364258C8.23395 0.364258 3.4812 3.57051 3.4812 8.75976C3.4812 12.0598 5.33745 13.9348 6.46245 13.9348C6.9267 13.9348 7.1937 12.641 7.1937 12.2758C7.1937 11.84 6.08295 10.9115 6.08295 9.09726C6.08295 5.32851 8.9517 2.65626 12.6642 2.65626C15.8562 2.65626 18.2187 4.47051 18.2187 7.80351C18.2187 10.2928 17.2205 14.9615 13.9857 14.9615C12.8187 14.9615 11.8197 14.1178 11.8197 12.9088C11.8197 11.1365 13.0572 9.42126 13.0572 7.59276C13.0572 4.49001 8.65545 5.05251 8.65545 8.80251C8.65545 9.59001 8.7537 10.4615 9.10545 11.1793C8.4582 13.964 7.1367 18.1123 7.1367 20.981C7.1367 21.8668 7.26345 22.739 7.34745 23.6248C7.50645 23.8033 7.42695 23.7845 7.6707 23.6953C10.0332 20.4605 9.9492 19.8283 11.018 15.5953C11.5947 16.6925 13.085 17.2828 14.2662 17.2828C19.244 17.2828 21.4805 12.431 21.4805 8.05776C21.4805 3.40326 17.4582 0.365758 13.043 0.365758L13.0437 0.364258Z" fill="white"/>
</g>
<defs>
<clipPath id="clip0_169_413">
<rect width="24" height="24" fill="white" transform="translate(0.481201 0.0595703)"/>
</clipPath>
</defs>
</svg>