<svg width="39" height="39" viewBox="0 0 39 39" fill="none" xmlns="http://www.w3.org/2000/svg">
<path d="M18.032 4.96021C16.9864 5.65723 13.291 8.10335 9.82562 10.3982C6.36028 12.6931 3.48017 14.6263 3.42757 14.7053C3.34866 14.8236 3.33551 16.3097 3.33551 25.5813C3.33551 37.1609 3.31578 36.5888 3.65771 36.773C3.74319 36.819 9.06285 36.8387 20.1822 36.8387C38.1138 36.8387 36.7593 36.8716 36.9302 36.4639C36.9828 36.3258 37.0026 34.9384 36.9894 31.2297L36.9697 26.1731L36.7856 26.0153C36.5357 25.7983 36.1543 25.7983 35.9044 26.0153L35.7203 26.1731L35.7006 30.8484L35.6874 35.5236H34.5367H33.386V31.69C33.386 28.0669 33.3794 27.8236 33.2545 27.337C32.9717 26.2323 32.1761 25.2525 31.1371 24.7396L30.5716 24.4569L30.8346 24.1281C31.4527 23.3456 31.7092 22.5171 31.6566 21.5176C31.558 19.7685 30.3875 18.289 28.7502 17.8681C28.2439 17.7366 27.2181 17.7366 26.7249 17.8681C25.2914 18.2429 24.1999 19.4265 23.8908 20.9455C23.7593 21.5768 23.7593 21.8529 23.8908 22.4908C24.0158 23.1023 24.2262 23.556 24.6141 24.0755C24.7719 24.2859 24.9035 24.4766 24.9035 24.4963C24.9035 24.516 24.8246 24.5489 24.7259 24.5752C24.3643 24.6607 23.6935 25.0947 23.299 25.4892C22.8387 25.9561 22.4639 26.5611 22.2535 27.1726C22.1154 27.5934 22.1088 27.6789 22.0891 31.5585L22.0694 35.5236H20.169H18.2687L18.249 31.5585C18.2292 27.6789 18.2227 27.5934 18.0846 27.1726C17.7361 26.1599 16.947 25.2065 16.0856 24.7791C15.8291 24.6476 15.5727 24.5424 15.5267 24.5424C15.3886 24.5424 15.4083 24.4963 15.7239 24.0755C16.125 23.5494 16.3223 23.0957 16.4538 22.4447C16.7892 20.8008 15.9278 18.9794 14.4548 18.2035C13.8433 17.8813 13.3501 17.7629 12.6071 17.7629C11.338 17.7629 10.3319 18.2298 9.57575 19.1701C8.38556 20.6496 8.35269 22.6683 9.50342 24.1281L9.76644 24.4569L9.20751 24.7396C8.16199 25.2591 7.36635 26.2323 7.0836 27.337C6.95866 27.8236 6.95208 28.0669 6.95208 31.69V35.5236H5.80136H4.65063V25.4629V15.4023L8.31981 12.9759C16.9141 7.2814 19.1432 5.80847 19.1695 5.82819C19.1827 5.84134 18.9197 7.16304 18.5975 8.76749C18.2687 10.3654 17.9991 11.766 17.9991 11.8712C17.9991 12.1408 18.3147 12.4432 18.604 12.4432C18.7224 12.4367 19.5115 12.2986 20.3531 12.121C21.1882 11.9435 21.8787 11.8251 21.8787 11.8514C21.8787 11.8843 21.3461 14.4488 20.6951 17.5656C20.0441 20.6759 19.5115 23.2667 19.5115 23.3259C19.5115 23.5166 19.6956 23.7927 19.8731 23.8716C20.2216 24.0295 20.557 23.9242 20.7214 23.5955C20.8266 23.3916 23.3911 11.2399 23.3911 10.944C23.3911 10.681 23.207 10.418 22.9768 10.3456C22.7927 10.2799 22.5231 10.3193 21.1619 10.6087C20.2808 10.7928 19.5509 10.9243 19.5378 10.9111C19.4983 10.8717 20.5701 5.59147 20.6293 5.51914C20.6556 5.48626 22.3258 6.55151 24.338 7.88636C26.3501 9.21463 29.7168 11.4438 31.8276 12.8444L35.6546 15.376L35.6874 18.1246L35.7203 20.8732L35.9044 21.031C36.1543 21.248 36.5357 21.248 36.7856 21.031L36.9697 20.8732L36.9894 17.9141C37.0026 16.0204 36.9828 14.8959 36.9368 14.7842C36.8908 14.6526 36.0359 14.0543 33.4386 12.3315C31.5448 11.0821 27.8559 8.63597 25.2322 6.89344C21.2277 4.24347 20.4255 3.73058 20.2019 3.71743C19.9586 3.69112 19.8139 3.77661 18.032 4.96021ZM13.3304 19.1635C14.2641 19.4463 14.9875 20.2485 15.1847 21.2217C15.336 21.9713 15.0335 22.9511 14.4746 23.5231C13.4685 24.5621 11.5747 24.516 10.6278 23.4376C10.5095 23.3061 10.3254 23.0037 10.2136 22.7669C10.0295 22.379 10.0097 22.2803 10.0097 21.682C10.0097 21.077 10.0295 20.985 10.2202 20.5773C10.7725 19.4068 12.1139 18.8019 13.3304 19.1635ZM28.6384 19.2227C29.3091 19.4528 29.8154 19.9263 30.1508 20.6496C30.3086 20.9784 30.3283 21.1033 30.3283 21.682C30.3283 22.2803 30.3086 22.379 30.1245 22.7669C29.6313 23.8125 28.7502 24.3319 27.5666 24.2662C25.2914 24.1478 24.2722 21.3729 25.9358 19.8013C26.6789 19.0978 27.6652 18.8873 28.6384 19.2227ZM15.3688 25.9035C16.1382 26.2783 16.6971 26.995 16.8747 27.817C16.9207 28.0537 16.947 29.3688 16.947 31.8413V35.5236H12.6071H8.26063L8.28035 31.5914L8.30008 27.6658L8.5105 27.2252C8.83928 26.5348 9.50342 25.9495 10.2399 25.7194C10.3319 25.6931 11.4235 25.6734 12.6729 25.6799L14.9414 25.6931L15.3688 25.9035ZM30.2757 25.7983C31.0188 26.0745 31.5054 26.5348 31.8539 27.2778L32.038 27.6658L32.0577 31.5914L32.0774 35.5236H27.731H23.3911V31.8413C23.3911 29.3688 23.4174 28.0537 23.4634 27.817C23.562 27.3501 23.7988 26.8964 24.1341 26.5348C24.476 26.1599 24.7062 26.0021 25.1599 25.818C25.5216 25.6668 25.5807 25.6602 27.7112 25.6602C29.7891 25.6602 29.9141 25.6668 30.2757 25.7983Z" fill="#07B3C5" stroke="#07B3C5" stroke-width="0.8"/>
<path d="M35.9176 23.0498C35.7993 23.1485 35.7335 23.2865 35.7072 23.4707C35.6743 23.714 35.6941 23.7666 35.8716 23.9507C36.1346 24.2071 36.5094 24.2269 36.7856 23.9901C36.9369 23.8586 36.9697 23.7797 36.9697 23.5233C36.9697 23.2668 36.9369 23.1879 36.7856 23.0564C36.5423 22.846 36.1544 22.8394 35.9176 23.0498Z" fill="#07B3C5" stroke="#07B3C5" stroke-width="0.8"/>
</svg>
