<svg width="68" height="68" viewBox="0 0 68 68" fill="none" xmlns="http://www.w3.org/2000/svg">
<path d="M48.3483 12.9203C48.9269 12.9203 49.4928 12.7487 49.974 12.4272C50.4551 12.1056 50.8302 11.6486 51.0516 11.1139C51.2731 10.5792 51.331 9.99081 51.2181 9.42321C51.1051 8.85561 50.8262 8.33428 50.417 7.9251C50.0077 7.51593 49.4863 7.23731 48.9186 7.12449C48.351 7.01168 47.7627 7.06973 47.2281 7.2913C46.6934 7.51287 46.2365 7.88802 45.9151 8.36933C45.5936 8.85058 45.4221 9.41634 45.4223 9.9951C45.4232 10.7707 45.7319 11.5143 46.2805 12.0627C46.829 12.6111 47.5726 12.9195 48.3483 12.9203ZM48.3483 9.01928C48.5411 9.01928 48.7296 9.07643 48.89 9.18362C49.0503 9.29074 49.1753 9.44302 49.2492 9.62118C49.323 9.79935 49.3422 9.9954 49.3046 10.1846C49.267 10.3737 49.1741 10.5475 49.0378 10.6838C48.9014 10.8202 48.7276 10.913 48.5385 10.9507C48.3493 10.9883 48.1534 10.969 47.9752 10.8952C47.797 10.8214 47.6447 10.6964 47.5376 10.5361C47.4305 10.3757 47.3732 10.1872 47.3732 9.99436C47.3735 9.73584 47.4764 9.48804 47.6592 9.3053C47.8419 9.12248 48.0897 9.01965 48.3483 9.01928Z" fill="#07B3C5"/>
<path d="M26.9889 11.5486C27.195 11.5484 27.3964 11.4872 27.5678 11.3726C27.7391 11.258 27.8726 11.0951 27.9513 10.9046C28.0301 10.7142 28.0507 10.5046 28.0104 10.3024C27.97 10.1003 27.8707 9.91459 27.7249 9.76896C27.5791 9.62325 27.3934 9.52404 27.1912 9.48383C26.989 9.44369 26.7795 9.46439 26.5891 9.54326C26.3986 9.62222 26.2359 9.7558 26.1213 9.92723C26.0068 10.0986 25.9458 10.3001 25.9458 10.5062C25.9458 10.6432 25.9728 10.7788 26.0252 10.9053C26.0776 11.0318 26.1545 11.1468 26.2513 11.2436C26.3481 11.3403 26.4632 11.4171 26.5897 11.4695C26.7163 11.5218 26.8519 11.5487 26.9889 11.5486Z" fill="#07B3C5"/>
<path d="M10.1597 10.738C10.3426 10.9207 10.5905 11.0234 10.849 11.0234C11.1076 11.0234 11.3556 10.9207 11.5384 10.738L12.3117 9.96473L13.0849 10.738C13.1748 10.8314 13.2824 10.906 13.4015 10.9573C13.5205 11.0086 13.6486 11.0357 13.7782 11.0369C13.9079 11.0382 14.0364 11.0136 14.1564 10.9646C14.2764 10.9156 14.3854 10.8431 14.4771 10.7514C14.5688 10.6598 14.6412 10.5507 14.6903 10.4308C14.7393 10.3107 14.7639 10.1821 14.7627 10.0525C14.7614 9.92289 14.7343 9.79485 14.683 9.67575C14.6317 9.55673 14.5571 9.44917 14.4636 9.35928L13.6904 8.58601L14.4636 7.81273C14.6331 7.62741 14.7245 7.38388 14.7188 7.13284C14.7132 6.88181 14.6109 6.64264 14.4333 6.46513C14.2557 6.28762 14.0165 6.18548 13.7654 6.17996C13.5144 6.17443 13.2709 6.26597 13.0857 6.4355L12.3117 7.20654L11.5391 6.4355C11.3551 6.25846 11.109 6.16066 10.8537 6.16313C10.5984 6.16559 10.3542 6.26812 10.1736 6.44868C9.99305 6.62923 9.89051 6.87342 9.88807 7.12875C9.88563 7.38409 9.98344 7.6302 10.1604 7.81421L10.9337 8.58749L10.1604 9.36075C9.97782 9.54335 9.87521 9.79093 9.87506 10.0492C9.87491 10.3074 9.9773 10.5552 10.1597 10.738Z" fill="#07B3C5"/>
<path d="M56.5089 15.8467H12.8794C11.4231 15.8482 10.027 16.4274 8.99719 17.4572C7.96748 18.4869 7.38829 19.8831 7.38672 21.3394V50.3397C7.38829 51.796 7.96748 53.1921 8.99719 54.2219C10.027 55.2516 11.4231 55.8308 12.8794 55.8324H28.5243L27.1308 60.7115H17.139C16.8804 60.7115 16.6324 60.8143 16.4495 60.9971C16.2667 61.18 16.1639 61.428 16.1639 61.6866C16.1639 61.9452 16.2667 62.1932 16.4495 62.3761C16.6324 62.5589 16.8804 62.6617 17.139 62.6617H53.2207C53.4793 62.6617 53.7273 62.5589 53.9102 62.3761C54.093 62.1932 54.1958 61.9452 54.1958 61.6866C54.1958 61.428 54.093 61.18 53.9102 60.9971C53.7273 60.8143 53.4793 60.7115 53.2207 60.7115H43.2326L41.8391 55.8324H56.5089C57.9652 55.8308 59.3613 55.2516 60.3911 54.2219C61.4208 53.1921 62.0001 51.796 62.0016 50.3397V21.3394C62.0001 19.8831 61.4208 18.4869 60.3911 17.4572C59.3613 16.4274 57.9652 15.8482 56.5089 15.8467ZM12.8794 17.7968H56.5089C57.4477 17.7986 58.3476 18.1723 59.0114 18.8362C59.6752 19.4999 60.0489 20.3998 60.0507 21.3386V47.0544H9.33762V21.3394C9.33939 20.4006 9.71309 19.5008 10.3769 18.8369C11.0408 18.173 11.9406 17.7994 12.8794 17.7976V17.7968ZM29.1608 60.7085L30.5543 55.8294H39.8098L41.2033 60.7085H29.1608ZM56.5089 53.8815H12.8794C11.9405 53.8797 11.0405 53.506 10.3766 52.8419C9.71279 52.1779 9.33917 51.2779 9.33762 50.339V49.0083H60.0507V50.339C60.0492 51.2779 59.6755 52.1779 59.0117 52.8419C58.3478 53.506 57.4479 53.8797 56.5089 53.8815Z" fill="#07B3C5"/>
<path d="M35.086 49.9814C34.7911 49.9814 34.5028 50.069 34.2576 50.2328C34.0124 50.3967 33.8213 50.6295 33.7085 50.9019C33.5956 51.1744 33.5661 51.4742 33.6236 51.7634C33.6811 52.0527 33.8231 52.3183 34.0317 52.5269C34.2402 52.7354 34.5059 52.8774 34.7951 52.9349C35.0844 52.9925 35.3841 52.9629 35.6566 52.8501C35.929 52.7373 36.162 52.5462 36.3258 52.3009C36.4896 52.0557 36.5771 51.7674 36.5771 51.4725C36.5771 51.0771 36.42 50.6979 36.1404 50.4183C35.8607 50.1386 35.4815 49.9814 35.086 49.9814Z" fill="#07B3C5"/>
<mask id="mask0_212_815" style="mask-type:alpha" maskUnits="userSpaceOnUse" x="14" y="22" width="40" height="22">
<path d="M52.4814 22.4111H15.5186C14.702 22.4111 14.04 23.0731 14.04 23.8896V41.6318C14.04 42.4484 14.702 43.1104 15.5186 43.1104H52.4814C53.298 43.1104 53.96 42.4484 53.96 41.6318V23.8896C53.96 23.0731 53.298 22.4111 52.4814 22.4111Z" fill="white"/>
</mask>
<g mask="url(#mask0_212_815)">
<path d="M52.4814 22.4111H15.5186C14.702 22.4111 14.04 23.0731 14.04 23.8896V41.6318C14.04 42.4484 14.702 43.1104 15.5186 43.1104H52.4814C53.298 43.1104 53.96 42.4484 53.96 41.6318V23.8896C53.96 23.0731 53.298 22.4111 52.4814 22.4111Z" stroke="#07B3C5" stroke-width="3.90328"/>
<path fill-rule="evenodd" clip-rule="evenodd" d="M14.399 24.7216C14.2008 25.0786 14.3294 25.5286 14.6863 25.7269L33.641 36.2573C33.8643 36.3814 34.1357 36.3814 34.359 36.2573L53.3137 25.7269C53.6706 25.5286 53.7992 25.0786 53.601 24.7216L53.3711 24.3081C53.1729 23.9512 52.7228 23.8226 52.3659 24.0209L34.359 34.0247C34.1357 34.1487 33.8643 34.1487 33.641 34.0247L15.6341 24.0209C15.2772 23.8226 14.8271 23.9512 14.6289 24.3081L14.399 24.7216Z" fill="#07B3C5"/>
</g>
</svg>