<svg width="62" height="74" viewBox="0 0 62 74" fill="none" xmlns="http://www.w3.org/2000/svg">
<path d="M59.668 28.1765C59.9635 28.1765 60.2524 28.0889 60.498 27.9247C60.7437 27.7606 60.9352 27.5272 61.0483 27.2542C61.1614 26.9812 61.191 26.6808 61.1333 26.391C61.0757 26.1012 60.9334 25.835 60.7244 25.6261C60.5155 25.4171 60.2493 25.2748 59.9595 25.2172C59.6697 25.1596 59.3693 25.1891 59.0963 25.3022C58.8233 25.4153 58.59 25.6068 58.4258 25.8525C58.2616 26.0982 58.174 26.387 58.174 26.6825C58.174 27.0787 58.3314 27.4587 58.6116 27.7389C58.8918 28.0191 59.2718 28.1765 59.668 28.1765Z" fill="#07B3C5"/>
<path d="M57.029 47.1309C56.1158 47.1309 55.2232 47.4016 54.4639 47.9089C53.7047 48.4162 53.1129 49.1374 52.7634 49.981C52.414 50.8247 52.3226 51.753 52.5007 52.6486C52.6789 53.5442 53.1186 54.3669 53.7643 55.0126C54.41 55.6583 55.2326 56.0979 56.1283 56.2761C57.0239 56.4542 57.9522 56.3629 58.7958 56.0134C59.6395 55.664 60.3606 55.0722 60.8679 54.313C61.3752 53.5537 61.646 52.6611 61.646 51.7479C61.6444 50.5239 61.1575 49.3504 60.2919 48.4849C59.4264 47.6194 58.253 47.1325 57.029 47.1309ZM57.029 53.7308C56.6376 53.7308 56.255 53.6147 55.9295 53.3973C55.6041 53.1798 55.3504 52.8707 55.2006 52.5091C55.0508 52.1475 55.0117 51.7497 55.088 51.3658C55.1644 50.9819 55.3529 50.6292 55.6296 50.3524C55.9064 50.0757 56.259 49.8873 56.6429 49.8109C57.0268 49.7346 57.4247 49.7737 57.7863 49.9234C58.1479 50.0732 58.457 50.3269 58.6745 50.6523C58.8919 50.9778 59.008 51.3604 59.008 51.7518C59.0075 52.2765 58.7988 52.7797 58.4278 53.1507C58.0567 53.5217 57.5537 53.7303 57.029 53.7308Z" fill="#07B3C5"/>
<path d="M53.891 14.9868C54.0126 15.1132 54.1581 15.214 54.3192 15.2835C54.4802 15.3529 54.6534 15.3896 54.8288 15.3912C55.0041 15.3929 55.178 15.3597 55.3404 15.2933C55.5027 15.227 55.6502 15.129 55.7742 15.005C55.8982 14.881 55.9962 14.7335 56.0625 14.5712C56.1288 14.4088 56.1621 14.2349 56.1604 14.0596C56.1588 13.8842 56.1221 13.711 56.0527 13.55C55.9832 13.3889 55.8824 13.2434 55.756 13.1218L54.823 12.1888L55.756 11.2558C55.8824 11.1342 55.9832 10.9887 56.0527 10.8276C56.1221 10.6666 56.1588 10.4934 56.1604 10.318C56.1621 10.1427 56.1288 9.96879 56.0625 9.80639C55.9962 9.64409 55.8982 9.49659 55.7742 9.37259C55.6502 9.24859 55.5027 9.15059 55.3404 9.08429C55.178 9.01799 55.0041 8.98469 54.8288 8.98639C54.6534 8.98799 54.4802 9.02469 54.3192 9.09409C54.1581 9.16359 54.0126 9.26439 53.891 9.39079L52.958 10.3238L52.025 9.39079C51.7761 9.15129 51.4432 9.01899 51.0978 9.02239C50.7524 9.02569 50.4221 9.16439 50.1778 9.40859C49.9336 9.65289 49.7949 9.98319 49.7916 10.3286C49.7882 10.674 49.9205 11.0069 50.16 11.2558L51.093 12.1888L50.16 13.1218C50.0336 13.2434 49.9328 13.3889 49.8633 13.55C49.7939 13.711 49.7572 13.8842 49.7556 14.0596C49.7539 14.2349 49.7871 14.4088 49.8535 14.5712C49.9198 14.7335 50.0178 14.881 50.1418 15.005C50.2658 15.129 50.4133 15.227 50.5756 15.2933C50.738 15.3597 50.9119 15.3929 51.0872 15.3912C51.2626 15.3896 51.4358 15.3529 51.5968 15.2835C51.7579 15.214 51.9034 15.1132 52.025 14.9868L52.958 14.0538L53.891 14.9868Z" fill="#07B3C5"/>
<path d="M28.665 60.3232H20.75C20.4002 60.3232 20.0647 60.4622 19.8173 60.7095C19.5699 60.9569 19.431 61.2924 19.431 61.6422C19.431 61.992 19.5699 62.3275 19.8173 62.5749C20.0647 62.8222 20.4002 62.9612 20.75 62.9612H28.665C29.0148 62.9612 29.3503 62.8222 29.5976 62.5749C29.845 62.3275 29.984 61.992 29.984 61.6422C29.984 61.2924 29.845 60.9569 29.5976 60.7095C29.3503 60.4622 29.0148 60.3232 28.665 60.3232Z" fill="#07B3C5"/>
<path d="M41.861 27.357V7.15703C41.861 3.74003 39.341 0.957031 36.243 0.957031H13.176C10.076 0.957031 7.55803 3.73703 7.55803 7.15703V20.417C6.59493 19.7733 5.46243 19.4299 4.30403 19.43C3.41853 19.4308 2.56943 19.7826 1.94283 20.4082C1.31623 21.0339 0.963129 21.8825 0.961029 22.768V71.946C0.961029 72.2958 1.10003 72.6313 1.34733 72.8787C1.59473 73.126 1.93023 73.265 2.28003 73.265C2.62983 73.265 2.96533 73.126 3.21273 72.8787C3.46003 72.6313 3.59903 72.2958 3.59903 71.946V22.768C3.59903 22.6761 3.61713 22.585 3.65233 22.5001C3.68753 22.4152 3.73903 22.338 3.80403 22.273C3.86903 22.208 3.94623 22.1565 4.03113 22.1213C4.11603 22.0861 4.20713 22.068 4.29903 22.068C5.16273 22.0669 5.99153 22.4089 6.60323 23.0187C7.21493 23.6285 7.55943 24.4563 7.56103 25.32V37.093C7.56153 37.3092 7.61473 37.522 7.71603 37.713C7.75203 37.781 11.263 44.555 7.75003 50.413C7.62663 50.618 7.56163 50.8528 7.56203 51.092V60.727C7.56203 64.144 10.082 66.927 13.18 66.927H24.707V72.204C24.707 72.554 24.846 72.8896 25.0935 73.137C25.3409 73.3845 25.6765 73.5235 26.0265 73.5235C26.3765 73.5235 26.7121 73.3845 26.9595 73.137C27.207 72.8896 27.346 72.554 27.346 72.204V66.927H36.239C39.339 66.927 41.857 64.147 41.857 60.727V56.346C42.921 56.2984 43.9258 55.843 44.6628 55.0741C45.3999 54.3052 45.8125 53.2821 45.815 52.217V51.278C45.813 50.2255 45.4083 49.2136 44.684 48.45C45.4081 47.6862 45.8128 46.6745 45.815 45.622V44.683C45.813 43.6305 45.4083 42.6187 44.684 41.855C45.4081 41.0912 45.8128 40.0795 45.815 39.027V38.088C45.813 37.0355 45.4083 36.0237 44.684 35.26C45.4081 34.4962 45.8128 33.4845 45.815 32.432V31.493C45.8143 30.4274 45.403 29.403 44.6667 28.6328C43.9303 27.8625 42.9255 27.4056 41.861 27.357ZM43.18 31.486V32.425C43.1792 32.8251 43.0198 33.2087 42.7368 33.4915C42.4538 33.7743 42.0701 33.9335 41.67 33.934H32.814C32.4139 33.9335 32.0302 33.7743 31.7472 33.4915C31.4642 33.2087 31.3048 32.8251 31.304 32.425V31.486C31.3048 31.0859 31.4642 30.7024 31.7472 30.4195C32.0302 30.1367 32.4139 29.9775 32.814 29.977H41.667C42.0678 29.9775 42.4521 30.1372 42.7352 30.4209C43.0184 30.7046 43.1773 31.0892 43.177 31.49L43.18 31.486ZM43.18 38.086V39.025C43.1792 39.4251 43.0198 39.8086 42.7368 40.0915C42.4538 40.3743 42.0701 40.5335 41.67 40.534H31.494C31.0939 40.5335 30.7102 40.3743 30.4272 40.0915C30.1442 39.8086 29.9848 39.4251 29.984 39.025V38.086C29.9848 37.6859 30.1442 37.3023 30.4272 37.0195C30.7102 36.7367 31.0939 36.5775 31.494 36.577H41.667C42.0671 36.5775 42.4508 36.7367 42.7338 37.0195C43.0168 37.3023 43.1762 37.6859 43.177 38.086H43.18ZM43.18 44.686V45.625C43.1792 46.0251 43.0198 46.4086 42.7368 46.6915C42.4538 46.9743 42.0701 47.1335 41.67 47.134H34.133C33.7329 47.1335 33.3492 46.9743 33.0662 46.6915C32.7832 46.4086 32.6238 46.0251 32.623 45.625V44.686C32.6238 44.2859 32.7832 43.9023 33.0662 43.6195C33.3492 43.3366 33.7329 43.1775 34.133 43.177H41.667C42.0665 43.1775 42.4495 43.3361 42.7324 43.6181C43.0153 43.9001 43.1752 44.2826 43.177 44.682L43.18 44.686ZM31.304 25.701C30.5068 25.0626 29.62 24.5451 28.672 24.165C29.2963 23.645 29.8098 23.0049 30.1821 22.2827C30.5544 21.5605 30.7779 20.7709 30.8392 19.9607C30.9006 19.1506 30.7986 18.3363 30.5394 17.5663C30.2801 16.7962 29.8689 16.0861 29.33 15.478C29.1431 15.2645 28.8924 15.1168 28.6152 15.0567C28.3379 14.9966 28.0486 15.0272 27.79 15.144C26.8126 15.549 25.765 15.7575 24.707 15.7575C23.649 15.7575 22.6014 15.549 21.624 15.144C21.3655 15.027 21.0761 14.9963 20.7988 15.0565C20.5215 15.1166 20.2708 15.2644 20.084 15.478C19.5452 16.086 19.134 16.796 18.8748 17.5659C18.6155 18.3358 18.5135 19.1499 18.5748 19.96C18.6361 20.7701 18.8594 21.5596 19.2315 22.2817C19.6036 23.0039 20.1169 23.6439 20.741 24.164C19.7936 24.5497 18.9073 25.0712 18.11 25.712V19.426C18.0792 18.5405 18.2269 17.6578 18.5445 16.8306C18.8621 16.0034 19.343 15.2487 19.9586 14.6113C20.5741 13.9739 21.3117 13.4671 22.1273 13.1209C22.9429 12.7747 23.8199 12.5963 24.706 12.5963C25.5921 12.5963 26.4691 12.7747 27.2847 13.1209C28.1003 13.4671 28.8379 13.9739 29.4534 14.6113C30.069 15.2487 30.5499 16.0034 30.8675 16.8306C31.1851 17.6578 31.3328 18.5405 31.302 19.426L31.304 25.701ZM24.704 23.015C23.7731 23.0139 22.8807 22.6437 22.2225 21.9855C21.5643 21.3273 21.1941 20.4349 21.193 19.504C21.1919 18.9608 21.3219 18.4253 21.572 17.943C23.6152 18.5548 25.7928 18.5548 27.836 17.943C28.0859 18.4253 28.2159 18.9608 28.215 19.504C28.2142 20.4348 27.8442 21.3272 27.1861 21.9854C26.5281 22.6437 25.6358 23.0139 24.705 23.015H24.704ZM24.704 26.023C26.7677 26.0187 28.7501 26.8274 30.222 28.274C29.7374 28.6587 29.3455 29.1475 29.0755 29.7042C28.8054 30.2609 28.6641 30.8713 28.662 31.49V32.429C28.662 32.494 28.678 32.555 28.681 32.619H16.901C17.2154 30.7756 18.1712 29.1026 19.5996 27.8956C21.028 26.6887 22.837 26.0254 24.707 26.023H24.704ZM36.236 64.281H13.176C12.3121 64.1967 11.5159 63.7767 10.9586 63.1113C10.4013 62.4458 10.1274 61.5883 10.196 60.723V51.444C13.779 45.09 10.931 38.318 10.196 36.782V7.15703C10.1274 6.29173 10.4013 5.43423 10.9586 4.76873C11.5159 4.10333 12.3121 3.68333 13.176 3.59903H16.892C17.0682 4.34913 17.4925 5.01773 18.0962 5.49653C18.6998 5.97533 19.4475 6.23623 20.218 6.23703H29.199C29.9693 6.23603 30.7168 5.97503 31.3202 5.49623C31.9237 5.01743 32.3479 4.34893 32.524 3.59903H36.24C37.1039 3.68333 37.9001 4.10333 38.4574 4.76873C39.0147 5.43423 39.2886 6.29173 39.22 7.15703V27.342H33.942V19.426C33.9547 18.2052 33.7252 16.994 33.2668 15.8625C32.8085 14.731 32.1303 13.7016 31.2715 12.8338C30.4128 11.9661 29.3905 11.2772 28.2638 10.8071C27.1371 10.337 25.9283 10.0949 24.7075 10.0949C23.4867 10.0949 22.2779 10.337 21.1512 10.8071C20.0245 11.2772 19.0022 11.9661 18.1435 12.8338C17.2847 13.7016 16.6065 14.731 16.1481 15.8625C15.6898 16.994 15.4603 18.2052 15.473 19.426V28.84C14.6064 30.4 14.1524 32.1554 14.154 33.94C14.1545 34.2895 14.2937 34.6245 14.541 34.8714C14.7883 35.1183 15.1235 35.257 15.473 35.257H28.473C27.7489 36.0208 27.3442 37.0325 27.342 38.085V39.024C27.3451 39.9219 27.64 40.7944 28.1822 41.5101C28.7244 42.2258 29.4845 42.7459 30.348 42.992C30.107 43.5225 29.9815 44.0983 29.98 44.681V45.62C29.982 46.6725 30.3867 47.6843 31.111 48.448C30.3869 49.2118 29.9822 50.2235 29.98 51.276V52.215C29.9813 53.3147 30.4188 54.369 31.1964 55.1466C31.974 55.9242 33.0283 56.3617 34.128 56.363H39.214V60.721C39.2823 61.5861 39.0083 62.4434 38.4511 63.1086C37.8938 63.7738 37.0977 64.1937 36.234 64.278L36.236 64.281ZM43.174 52.218C43.1732 52.6181 43.0138 53.0017 42.7308 53.2845C42.4478 53.5673 42.0641 53.7265 41.664 53.727H34.133C33.7329 53.7265 33.3492 53.5673 33.0662 53.2845C32.7832 53.0017 32.6238 52.6181 32.623 52.218V51.279C32.6238 50.8789 32.7832 50.4954 33.0662 50.2125C33.3492 49.9297 33.7329 49.7705 34.133 49.77H41.667C42.0671 49.7705 42.4508 49.9297 42.7338 50.2125C43.0168 50.4954 43.1762 50.8789 43.177 51.279L43.174 52.218Z" fill="#07B3C5"/>
</svg>