<svg width="55" height="56" viewBox="0 0 55 56" fill="none" xmlns="http://www.w3.org/2000/svg">
<path d="M17.6035 9.0791V15.4368" stroke="#07B3C5" stroke-width="2.38412" stroke-miterlimit="10" stroke-linecap="round" stroke-linejoin="round"/>
<path d="M34.5579 9.0791V15.4368" stroke="#07B3C5" stroke-width="2.38412" stroke-miterlimit="10" stroke-linecap="round" stroke-linejoin="round"/>
<path d="M8.06702 24.1025H44.0938" stroke="#07B3C5" stroke-width="3.17883" stroke-miterlimit="10" stroke-linecap="round" stroke-linejoin="round"/>
<path d="M45.1537 22.8539V39.511C43.6067 37.752 41.3391 36.6289 38.7961 36.6289C34.1126 36.6289 30.3192 40.4223 30.3192 45.1058C30.3192 46.6952 30.7642 48.1998 31.5483 49.4714C31.9934 50.2343 32.5656 50.9124 33.2225 51.4634H17.6039C10.1866 51.4634 7.00775 47.225 7.00775 40.8673V22.8539C7.00775 16.4963 10.1866 12.2578 17.6039 12.2578H34.5576C41.9749 12.2578 45.1537 16.4963 45.1537 22.8539Z" stroke="#07B3C5" stroke-width="3.17883" stroke-miterlimit="10" stroke-linecap="round" stroke-linejoin="round"/>
<path d="M26.0709 33.8721H26.0899" stroke="#07B3C5" stroke-width="4.76825" stroke-linecap="round" stroke-linejoin="round"/>
<path d="M18.2278 33.8721H18.2468" stroke="#07B3C5" stroke-width="4.76825" stroke-linecap="round" stroke-linejoin="round"/>
<path d="M18.2278 41.8204H18.2468" stroke="#07B3C5" stroke-width="4.76825" stroke-linecap="round" stroke-linejoin="round"/>
<path d="M47.2727 45.1048C47.2727 46.6942 46.8276 48.1989 46.0435 49.4704C44.5813 51.9287 41.8899 53.5817 38.7958 53.5817C36.6554 53.5817 34.7057 52.7976 33.2222 51.4625C32.5653 50.9115 31.9931 50.2333 31.5481 49.4704C30.7639 48.1989 30.3189 46.6942 30.3189 45.1048C30.3189 40.4213 34.1123 36.6279 38.7958 36.6279C41.3389 36.6279 43.6064 37.7511 45.1535 39.51C46.4674 41.0147 47.2727 42.9644 47.2727 45.1048Z" stroke="#07B3C5" stroke-width="2.38412" stroke-miterlimit="10" stroke-linecap="round" stroke-linejoin="round"/>
<path d="M35.49 45.1042L37.588 47.2022L42.102 43.0273" stroke="#07B3C5" stroke-width="2.38412" stroke-linecap="round" stroke-linejoin="round"/>
<path d="M51.5114 15.643C52.0901 15.643 52.656 15.4713 53.1371 15.1498C53.6183 14.8283 53.9934 14.3713 54.2148 13.8366C54.4362 13.3018 54.4942 12.7135 54.3812 12.1459C54.2683 11.5783 53.9894 11.0569 53.5802 10.6478C53.1708 10.2386 52.6494 9.95996 52.0818 9.84715C51.5142 9.73434 50.9259 9.79238 50.3912 10.014C49.8566 10.2355 49.3997 10.6107 49.0782 11.092C48.7568 11.5732 48.5853 12.139 48.5854 12.7178C48.5864 13.4934 48.8951 14.237 49.4437 14.7854C49.9922 15.3338 50.7358 15.6422 51.5114 15.643ZM51.5114 11.7419C51.7043 11.7419 51.8928 11.7991 52.0532 11.9063C52.2135 12.0134 52.3385 12.1657 52.4124 12.3438C52.4861 12.522 52.5054 12.7181 52.4678 12.9072C52.4302 13.0964 52.3373 13.2701 52.2009 13.4065C52.0645 13.5428 51.8908 13.6357 51.7016 13.6733C51.5125 13.711 51.3166 13.6917 51.1383 13.6179C50.9602 13.544 50.8079 13.4191 50.7008 13.2587C50.5936 13.0984 50.5364 12.9098 50.5364 12.717C50.5367 12.4585 50.6396 12.2107 50.8224 12.028C51.0051 11.8451 51.2529 11.7423 51.5114 11.7419Z" fill="#07B3C5"/>
<path d="M34.4484 2.864C34.6545 2.86386 34.8559 2.80265 35.0273 2.68799C35.1986 2.5734 35.3321 2.41054 35.4108 2.22004C35.4896 2.0296 35.5102 1.82002 35.4699 1.61784C35.4295 1.41572 35.3302 1.23002 35.1844 1.08439C35.0386 0.938681 34.8529 0.839473 34.6507 0.799257C34.4485 0.759115 34.239 0.779815 34.0486 0.858694C33.8581 0.937646 33.6954 1.07123 33.5808 1.24266C33.4663 1.41402 33.4053 1.61555 33.4053 1.82165C33.4053 1.95864 33.4323 2.09422 33.4847 2.2207C33.5371 2.34726 33.614 2.46222 33.7108 2.55899C33.8077 2.65576 33.9227 2.73256 34.0492 2.7849C34.1758 2.83724 34.3114 2.86415 34.4484 2.864Z" fill="#07B3C5"/>
<path d="M5.90778 6.39619C6.09068 6.57894 6.33862 6.68162 6.59714 6.68162C6.85573 6.68162 7.10368 6.57894 7.2865 6.39619L8.05976 5.62293L8.83303 6.39619C8.92292 6.48956 9.03056 6.56415 9.14958 6.61546C9.2686 6.66684 9.39671 6.69389 9.5263 6.69515C9.65597 6.69641 9.78452 6.67179 9.90451 6.62278C10.0245 6.57376 10.1335 6.50132 10.2252 6.40965C10.3169 6.31798 10.3893 6.20894 10.4384 6.08896C10.4874 5.9689 10.512 5.84035 10.5108 5.71068C10.5095 5.58109 10.4824 5.45305 10.4311 5.33395C10.3798 5.21493 10.3052 5.10737 10.2117 5.01748L9.43848 4.24422L10.2117 3.47094C10.3812 3.28561 10.4726 3.04208 10.4669 2.79104C10.4613 2.54001 10.359 2.30084 10.1814 2.12334C10.0038 1.94583 9.76456 1.84368 9.51351 1.83816C9.26254 1.83264 9.01902 1.92417 8.83377 2.0937L8.05976 2.86474L7.28724 2.0937C7.10324 1.91666 6.85714 1.81887 6.6018 1.82133C6.34646 1.8238 6.10228 1.92632 5.92176 2.10688C5.74115 2.28744 5.63862 2.53162 5.63618 2.78695C5.63374 3.04229 5.73154 3.28841 5.90852 3.47242L6.68179 4.24569L5.90852 5.01896C5.72593 5.20155 5.62332 5.44913 5.62317 5.70743C5.62302 5.96565 5.72541 6.21338 5.90778 6.39619Z" fill="#07B3C5"/>
</svg>