<svg width="25" height="20" viewBox="0 0 25 20" fill="none" xmlns="http://www.w3.org/2000/svg">
<path d="M24.4812 2.52456C23.5986 2.9105 22.6382 3.18825 21.6489 3.29643C22.676 2.67787 23.4452 1.70064 23.8121 0.548089C22.8483 1.1293 21.7924 1.53686 20.6913 1.75268C20.2311 1.25396 19.6745 0.856663 19.0562 0.585535C18.4379 0.314407 17.7712 0.175261 17.0975 0.17677C14.3719 0.17677 12.1798 2.41638 12.1798 5.16472C12.1798 5.55066 12.226 5.9366 12.301 6.30792C8.21973 6.09156 4.57978 4.11509 2.15988 1.08899C1.71894 1.85243 1.48788 2.7217 1.49073 3.60635C1.49073 5.33723 2.35889 6.86343 3.68277 7.76103C2.90259 7.72989 2.14067 7.51251 1.459 7.12657V7.18797C1.459 9.61178 3.14918 11.6204 5.40179 12.0824C4.97884 12.1937 4.54374 12.2507 4.10676 12.2519C3.7866 12.2519 3.48376 12.2198 3.17802 12.1759C3.80102 14.1524 5.61523 15.588 7.77555 15.6347C6.08537 16.9768 3.96831 17.7662 1.66955 17.7662C1.2571 17.7662 0.876377 17.7516 0.481232 17.7048C2.66174 19.1228 5.24893 19.9415 8.03513 19.9415C17.0802 19.9415 22.0296 12.3455 22.0296 5.7524C22.0296 5.53604 22.0296 5.31968 22.0152 5.10332C22.9728 4.39285 23.8121 3.51279 24.4812 2.52456Z" fill="white"/>
</svg>